<svg width="64" height="53" viewBox="0 0 64 53" fill="none" xmlns="http://www.w3.org/2000/svg">
<path d="M46.9301 1.71183C42.7025 -1.38846 38.7097 0.420042 37.2417 1.71183L22.9734 15.9802C20.014 20.4897 21.5054 24.0832 22.6211 25.3163L36.8894 39.7608C39.8488 41.5927 39.2968 46.161 38.6509 48.2161L60.4938 26.3732C64.5806 22.991 63.1361 18.3876 61.9031 16.5086L46.9301 1.71183Z" fill="#30ACF4"/>
<path d="M50.2767 25.1401L28.2577 3.47337C24.03 -1.4589 19.0978 0.00903974 17.1601 1.35954L3.42019 14.7471C-0.948391 19.2566 1.13021 24.2594 2.71558 26.197L27.2008 50.5061C31.4284 53.6064 35.1863 51.7979 36.5368 50.5061C44.5224 42.4618 60.4583 26.3732 60.3174 26.3732C55.7375 28.8393 51.686 26.8429 50.2767 25.1401Z" fill="#3066F6"/>
<circle cx="6.97188" cy="20.9621" r="2.64229" fill="white"/>
</svg>
